<?xml version="1.0" encoding="UTF-8"?><svg id="Layer_1" xmlns="http://www.w3.org/2000/svg" viewBox="0 0 101.55 35.69"><defs><style>.cls-1{isolation:isolate;}</style></defs><g class="cls-1"><g class="cls-1"><path d="M12.54,15.76c-.24-1.89-1.33-3.17-3.36-3.17-1.89,0-3.08,1.28-3.08,2.79,0,2.23,2.27,2.89,4.88,3.69,3.69,1.14,7.1,3.36,7.1,8.24s-3.69,8.38-8.8,8.38c-4.73,0-9.28-3.22-9.28-9.28h4.92c.24,3.17,1.85,4.78,4.45,4.78,2.27,0,3.79-1.47,3.79-3.6,0-1.8-1.37-2.98-4.45-3.98-6.44-2.04-7.53-4.83-7.53-7.81,0-4.64,3.93-7.72,8.24-7.72s7.9,3.03,8.05,7.67h-4.92Z"/><path d="M33.48,35.69c-7.38,0-13.96-6.3-13.96-13.68,0-8,6.29-13.92,14.34-13.92,7.24,0,14.06,5.68,13.96,14.01-.09,7-5.96,13.58-14.34,13.58ZM33.62,12.59c-4.92,0-9.18,4.17-9.18,9.28s4.12,9.32,9.09,9.32,9.37-4.07,9.37-9.37-4.12-9.23-9.28-9.23Z"/><path d="M51.25,35.03V13.3h-2.32v-4.5h2.32v-1.18c0-5.02,3.55-7.62,8.43-7.62h1.09v4.5c-3.22,0-4.59,1.14-4.59,3.08v1.23h4.59v4.5h-4.59v21.73h-4.92Z"/><path d="M62.59,35.03V8.8h4.59v2.37h.09c1.18-1.75,3.22-2.89,6.67-3.08v5.06c-4.26.14-6.44,2.75-6.44,7.15v14.72h-4.92Z"/><path d="M96.63,35.03v-4.07h-.09c-1.85,3.12-5.16,4.73-8.9,4.73-7.67,0-13.92-5.78-13.92-13.35,0-8.38,6.01-14.25,13.73-14.25,3.83,0,7.05,1.42,9.09,4.4h.09v-3.69h4.92v26.22h-4.92ZM96.72,21.96c0-5.11-3.69-9.37-9.13-9.37-4.92,0-8.95,4.21-8.95,9.37s4.02,9.23,8.95,9.23,9.13-4.26,9.13-9.23Z"/></g></g></svg>